<svg xmlns="http://www.w3.org/2000/svg" xmlns:xlink="http://www.w3.org/1999/xlink" viewBox="0 0 640.84 360.28"><defs><style>.cls-1,.cls-2,.cls-3,.cls-4,.cls-7{fill:none;}.cls-1{clip-rule:evenodd;}.cls-2,.cls-6{fill-rule:evenodd;}.cls-4{stroke:#34599c;}.cls-4,.cls-7{stroke-miterlimit:8;}.cls-5{clip-path:url(#clip-path);}.cls-6{fill:#4472c4;}.cls-7{stroke:#fff;}.cls-8{clip-path:url(#clip-path-6);}.cls-11,.cls-13,.cls-9{font-size:54.96px;fill:#fff;font-family:MalgunGothic, Malgun Gothic;}.cls-9{letter-spacing:-0.01em;}.cls-10{letter-spacing:0em;}.cls-12,.cls-13{letter-spacing:0em;}</style><clipPath id="clip-path" transform="translate(0.02 -33.22)"><polygon class="cls-1" points="0 437.76 640.8 437.76 640.8 0 0 0 0 437.76 0 437.76"/></clipPath><clipPath id="clip-path-6" transform="translate(0.02 -33.22)"><rect class="cls-3" width="640.8" height="437.76"/></clipPath></defs><g id="레이어_2" data-name="레이어 2"><g id="레이어_1-2" data-name="레이어 1"><polyline class="cls-4" points="320.39 94.1 320.39 180.17 300.74 180.17"/><g class="cls-5"><polyline class="cls-4" points="320.42 94.1 320.42 246.59 546.82 246.59 546.82 266.24"/><g class="cls-5"><line class="cls-4" x1="320.42" y1="94.1" x2="320.42" y2="266.24"/><g class="cls-5"><polyline class="cls-4" points="320.38 94.1 320.38 246.59 93.98 246.59 93.98 266.24"/><g class="cls-5"><polygon class="cls-6" points="226.82 0.5 414.02 0.5 414.02 94.1 226.82 94.1 226.82 0.5 226.82 0.5"/><polygon class="cls-7" points="226.82 0.5 414.02 0.5 414.02 94.1 226.82 94.1 226.82 0.5 226.82 0.5"/><g class="cls-5"><g class="cls-8"><text class="cls-9" transform="translate(298.01 67.04)">r<tspan class="cls-10" x="18.77" y="0">c</tspan></text></g><g class="cls-5"><polygon class="cls-6" points="0.5 266.18 187.58 266.18 187.58 359.78 0.5 359.78 0.5 266.18 0.5 266.18"/><polygon class="cls-7" points="0.5 266.18 187.58 266.18 187.58 359.78 0.5 359.78 0.5 266.18 0.5 266.18"/><g class="cls-5"><g class="cls-8"><text class="cls-11" transform="translate(67.97 332.71)"><tspan class="cls-12">c</tspan><tspan x="25.92" y="0">c</tspan></text></g><g class="cls-5"><polygon class="cls-6" points="226.82 266.18 414.02 266.18 414.02 359.78 226.82 359.78 226.82 266.18 226.82 266.18"/><polygon class="cls-7" points="226.82 266.18 414.02 266.18 414.02 359.78 226.82 359.78 226.82 266.18 226.82 266.18"/><g class="cls-5"><polygon class="cls-6" points="453.26 266.18 640.34 266.18 640.34 359.78 453.26 359.78 453.26 266.18 453.26 266.18"/><polygon class="cls-7" points="453.26 266.18 640.34 266.18 640.34 359.78 453.26 359.78 453.26 266.18 453.26 266.18"/><g class="cls-5"><polygon class="cls-6" points="113.66 133.34 300.74 133.34 300.74 226.94 113.66 226.94 113.66 133.34 113.66 133.34"/><polygon class="cls-7" points="113.66 133.34 300.74 133.34 300.74 226.94 113.66 226.94 113.66 133.34 113.66 133.34"/><g class="cls-5"><g class="cls-8"><text class="cls-13" transform="translate(168.24 199.89)">cc<tspan class="cls-10" x="51.84" y="0">c</tspan></text></g></g></g></g></g></g></g></g></g></g></g></g></g></g></svg>